<mxfile host="app.diagrams.net" modified="2022-01-15T10:28:31.292Z" agent="5.0 (Windows NT 10.0; Win64; x64) AppleWebKit/537.36 (KHTML, like Gecko) Chrome/97.0.4692.71 Safari/537.36 Edg/97.0.1072.62" etag="WTXCyWqV0u17lFDh8T8D" version="16.2.7" type="github">
  <diagram id="MSMxc_KiPaX55jW2pGAG" name="Page-1">
    <mxGraphModel dx="1002" dy="718" grid="1" gridSize="10" guides="1" tooltips="1" connect="1" arrows="1" fold="1" page="1" pageScale="1" pageWidth="827" pageHeight="1169" math="0" shadow="0">
      <root>
        <mxCell id="0" />
        <mxCell id="1" parent="0" />
        <mxCell id="UZmfLQT8j16dgxZkh9sH-1" value="fasdf" style="rounded=0;whiteSpace=wrap;html=1;fillColor=#dae8fc;strokeColor=#6c8ebf;strokeWidth=0;" parent="1" vertex="1">
          <mxGeometry x="320" y="260" width="140" height="100" as="geometry" />
        </mxCell>
      </root>
    </mxGraphModel>
  </diagram>
</mxfile>
